<svg xmlns="http://www.w3.org/2000/svg" viewBox="0 0 14.09 14.08"><g id="Layer_2" data-name="Layer 2"><g id="Layer_1-2" data-name="Layer 1"><path d="M7,14.08A7.11,7.11,0,0,1,0,8.53,1.3,1.3,0,0,1,.29,7.42a1.34,1.34,0,0,1,1-.47,5.65,5.65,0,0,0,4-1.64A5.53,5.53,0,0,0,7,1.28a1.26,1.26,0,0,1,.47-1A1.31,1.31,0,0,1,8.53,0,7.15,7.15,0,0,1,12.8,2.89h0A7.12,7.12,0,0,1,7.39,14.07ZM1.56,8.45A5.59,5.59,0,0,0,7.3,12.57a5.56,5.56,0,0,0,4.09-2.15,5.66,5.66,0,0,0,.19-6.66,5.57,5.57,0,0,0-3.13-2.2A7,7,0,0,1,6.37,6.37,7,7,0,0,1,1.56,8.45Zm-.3,0Zm7-6.95Z"/></g></g></svg>