<svg xmlns="http://www.w3.org/2000/svg" viewBox="0 0 18 18"><g id="Layer_2" data-name="Layer 2"><g id="Layer_1-2" data-name="Layer 1"><path d="M9,13.61A4.61,4.61,0,1,1,13.61,9,4.62,4.62,0,0,1,9,13.61ZM9,5.89A3.11,3.11,0,1,0,12.11,9,3.12,3.12,0,0,0,9,5.89Z"/><rect x="8.25" width="1.5" height="2.57" rx="0.75"/><rect x="2.8" y="2.26" width="1.5" height="2.57" rx="0.75" transform="translate(-1.47 3.54) rotate(-44.99)"/><rect y="8.25" width="2.57" height="1.5" rx="0.75"/><rect x="2.26" y="13.71" width="2.57" height="1.5" rx="0.75" transform="translate(-9.18 6.74) rotate(-45)"/><rect x="8.25" y="15.43" width="1.5" height="2.57" rx="0.75"/><rect x="13.7" y="13.17" width="1.5" height="2.57" rx="0.75" transform="translate(-5.99 14.45) rotate(-44.99)"/><rect x="15.43" y="8.25" width="2.57" height="1.5" rx="0.75"/><rect x="13.17" y="2.8" width="2.57" height="1.5" rx="0.75" transform="translate(1.73 11.26) rotate(-45)"/></g></g></svg>